<?xml version="1.0" encoding="UTF-8"?>
<svg version="1.1" xmlns="http://www.w3.org/2000/svg" width="500" height="500">
<path d="M0 0 C5.25105442 -0.02464928 10.50207545 -0.04283568 15.75317383 -0.05493164 C17.54094021 -0.05997218 19.32870245 -0.06680454 21.11645508 -0.07543945 C23.68051168 -0.0875173 26.24451397 -0.09323094 28.80859375 -0.09765625 C29.6127623 -0.10281754 30.41693085 -0.10797882 31.24546814 -0.11329651 C33.16401715 -0.11349215 35.08245368 -0.06201983 37 0 C38.87160741 1.87160741 38.12623016 5.04833914 38.12698364 7.54125977 C38.12854505 8.23498955 38.13010646 8.92871934 38.13171518 9.64347124 C38.13573754 11.99280398 38.13253361 14.34207292 38.12939453 16.69140625 C38.13072868 18.37625414 38.13248647 20.06110174 38.13463593 21.74594879 C38.13918277 26.37538029 38.13731175 31.00479012 38.13422441 35.63422203 C38.13233056 39.5620424 38.13392415 43.48985811 38.13556135 47.41767836 C38.13993768 57.97217121 38.13698915 68.52665062 38.13056505 79.08114195 C38.12592328 86.76674141 38.12352257 94.45233874 38.12231445 102.13793945 C38.10855837 175.42915843 37.77170491 248.71284736 37 322 C32.78263082 322.91966053 29.05622239 323.03911935 24.73046875 322.87890625 C22.86104614 322.81425171 22.86104614 322.81425171 20.95385742 322.74829102 C19.36506826 322.68644667 17.77628311 322.62449958 16.1875 322.5625 C13.55696608 322.46444484 10.92642066 322.36676832 8.29585266 322.26963806 C7.59298457 322.24364769 6.89011647 322.21765731 6.16594934 322.19087934 C4.44396779 322.12721063 2.72198411 322.0635995 1 322 C-0.19271264 289.70625074 -0.13450493 257.40940858 -0.10353777 225.09925476 C-0.09624517 217.27513518 -0.09487504 209.45101737 -0.09374207 201.62689488 C-0.09157362 187.68306357 -0.08497463 173.73923824 -0.07543945 159.79541016 C-0.06620737 146.28043649 -0.0591552 132.76546448 -0.05493164 119.25048828 C-0.05466892 118.41216503 -0.05440619 117.57384178 -0.05413551 116.71011479 C-0.05283012 112.50292267 -0.05156649 108.29573055 -0.05032361 104.08853841 C-0.04001999 69.39235469 -0.02246327 34.6961779 0 0 Z " fill="#FEFBFE" transform="translate(231,34)"/>
<path d="M0 0 C0.75414688 0.00202423 1.50829376 0.00404846 2.28529358 0.00613403 C3.4413485 0.00469894 3.4413485 0.00469894 4.62075806 0.00323486 C6.25413596 0.00255305 7.88751655 0.00440745 9.52088928 0.00857544 C12.02510155 0.01391646 14.52913386 0.00863429 17.03334045 0.00222778 C18.61732523 0.00288871 20.20130989 0.00417017 21.78529358 0.00613403 C22.53741623 0.0041098 23.28953888 0.00208557 24.06445312 0 C29.37178734 0.02399029 29.37178734 0.02399029 31.60169983 1.13894653 C31.62557159 23.40078558 31.64293457 45.6626224 31.653512 67.92447186 C31.65856429 78.27225371 31.6654092 88.62002734 31.67713928 98.96780396 C31.73980806 155.3666881 31.40472026 211.74554655 30.60169983 268.13894653 C18.72169983 268.13894653 6.84169983 268.13894653 -5.39830017 268.13894653 C-6.39225968 213.89570047 -6.55621722 159.66477019 -6.52686858 105.41334832 C-6.52246925 96.3048116 -6.52567414 87.19628841 -6.53049767 78.08775252 C-6.5350198 69.18703454 -6.53568728 60.28632248 -6.533059 51.38560373 C-6.53150602 46.11996753 -6.53127789 40.85434065 -6.53459549 35.58870506 C-6.53746474 30.7033277 -6.53551642 25.81797644 -6.52970123 20.93260193 C-6.52837353 19.14141191 -6.52876793 17.3502197 -6.5309639 15.55903053 C-6.533672 13.12833807 -6.53029999 10.697731 -6.52528381 8.26704407 C-6.52751454 7.55118848 -6.52974526 6.83533288 -6.53204358 6.0977847 C-6.50766486 0.06747791 -5.98792585 0.02718961 0 0 Z " fill="#FEFEFE" transform="translate(312.39830017089844,65.86105346679688)"/>
<path d="M0 0 C1.56047445 0.00015913 3.12095416 0.00585397 4.68139648 0.01586914 C5.91115456 0.01799156 5.91115456 0.01799156 7.16575623 0.02015686 C9.79470406 0.0257725 12.42356797 0.0383276 15.05249023 0.05102539 C16.8304838 0.05603838 18.60847869 0.06060163 20.38647461 0.06469727 C24.75434569 0.07574701 29.12215371 0.09302208 33.48999023 0.11352539 C33.51287175 33.40566673 33.53049618 66.69780611 33.54105556 99.98995356 C33.54230629 103.91908364 33.54360061 107.8482137 33.54492188 111.77734375 C33.54531534 112.95068803 33.54531534 112.95068803 33.54571676 114.14773623 C33.5500698 126.81875266 33.55795536 139.48976456 33.56714303 152.16077831 C33.5764897 165.15933481 33.582048 178.15788894 33.58407873 191.15644866 C33.58545184 199.17928754 33.58979105 207.20211362 33.5979067 215.22494856 C33.60381018 221.37357109 33.60444662 227.52218382 33.60309792 233.67080879 C33.60337368 236.19558669 33.60537148 238.72036506 33.60919571 241.24514008 C33.6141522 244.68535129 33.61298121 248.12550718 33.61024475 251.5657196 C33.61315759 252.57058385 33.61607043 253.5754481 33.61907154 254.61076277 C33.61708049 255.53336766 33.61508945 256.45597254 33.61303806 257.40653515 C33.61360764 258.59752796 33.61360764 258.59752796 33.61418873 259.81258124 C33.48999023 262.11352539 33.48999023 262.11352539 32.48999023 267.11352539 C20.60999023 267.11352539 8.72999023 267.11352539 -3.51000977 267.11352539 C-3.63835853 238.71450459 -3.76588836 210.31548026 -3.89219204 181.91645028 C-3.90720689 178.54057295 -3.9222291 175.16469564 -3.93725586 171.78881836 C-3.94174178 170.7809798 -3.94174178 170.7809798 -3.94631833 169.75278087 C-3.99137978 159.63262999 -4.03693268 149.5124814 -4.08276367 139.39233398 C-4.13614232 127.60435946 -4.18890713 115.81638236 -4.24097681 104.02840197 C-4.26849038 97.80424525 -4.2962827 91.5800901 -4.32481384 85.35593796 C-4.38608129 71.95610038 -4.44267617 58.55626377 -4.48867798 45.15636444 C-4.50243721 41.15025688 -4.51805836 37.14416342 -4.5352478 33.13806915 C-4.55466011 28.54115133 -4.56912414 23.94424595 -4.57939816 19.34729886 C-4.58387591 17.68359431 -4.59004955 16.01989335 -4.59802341 14.35620189 C-4.60844719 12.11738371 -4.61276393 9.87863987 -4.61535645 7.63980103 C-4.61920097 6.39410654 -4.6230455 5.14841206 -4.62700653 3.86496925 C-4.45217734 -0.24653503 -4.2392453 0.13711129 0 0 Z " fill="#FEFEFE" transform="translate(160.510009765625,66.886474609375)"/>
<path d="M0 0 C0.77261673 0.02502594 1.54523346 0.05005188 2.34126282 0.07583618 C4.80738665 0.15796602 7.27270113 0.25458125 9.73828125 0.3515625 C11.4107743 0.40980933 13.0833005 0.46711246 14.75585938 0.5234375 C18.85463162 0.6635341 22.95273725 0.81662341 27.05078125 0.9765625 C27.97749166 4.89440185 28.16422987 8.51007632 28.13980103 12.53143311 C28.13727746 13.17611738 28.1347539 13.82080166 28.13215387 14.48502183 C28.1224616 16.63688089 28.10542363 18.78861725 28.08837891 20.94042969 C28.07986853 22.48632074 28.07179755 24.03221427 28.06413269 25.57810974 C28.04197049 29.76993533 28.01329555 33.96169305 27.98317766 38.15346813 C27.9525013 42.5372091 27.92688944 46.92098017 27.90048218 51.30474854 C27.85532234 58.66201503 27.80584029 66.01924327 27.75390625 73.37646484 C27.69385123 81.8931006 27.64110196 90.4097586 27.59213793 98.9264648 C27.54487116 107.11227582 27.49203289 115.29804211 27.43677902 123.4838028 C27.41336024 126.97182595 27.39199537 130.4598529 27.37227249 133.94789886 C27.34886462 138.04860438 27.3206284 142.14924825 27.28858376 146.2498951 C27.27759219 147.75882128 27.26831145 149.26776098 27.26082039 150.7767086 C27.25036524 152.82770965 27.23324767 154.87867359 27.21572876 156.92962646 C27.20797739 158.07998257 27.20022602 159.23033867 27.19223976 160.41555405 C27.05078125 162.9765625 27.05078125 162.9765625 26.05078125 163.9765625 C23.46888679 164.07747725 20.91431625 164.11627749 18.33203125 164.109375 C17.17241882 164.11081009 17.17241882 164.11081009 15.98937988 164.11227417 C14.35180581 164.11295591 12.71422906 164.11110207 11.07666016 164.10693359 C8.56146204 164.10158521 6.04644252 164.10687876 3.53125 164.11328125 C1.94401002 164.11262047 0.35677015 164.1113393 -1.23046875 164.109375 C-1.98775269 164.11139923 -2.74503662 164.11342346 -3.52526855 164.11550903 C-8.83426743 164.09151382 -8.83426743 164.09151382 -9.94921875 162.9765625 C-10.06490664 160.90594601 -10.10949448 158.83135015 -10.12762451 156.75758362 C-10.13467919 156.10068839 -10.14173386 155.44379317 -10.14900231 154.76699203 C-10.1715144 152.54983832 -10.186825 150.33269276 -10.20214844 148.11547852 C-10.21662904 146.53238574 -10.23150538 144.94929654 -10.24674988 143.36621094 C-10.28673252 139.05432228 -10.32002672 134.74240734 -10.35133648 130.43044782 C-10.37102612 127.73971059 -10.39187838 125.04898481 -10.41309357 122.3582592 C-10.47908907 113.94879574 -10.54106779 105.53931697 -10.59727263 97.12978226 C-10.66229646 87.40489569 -10.74042349 77.68023144 -10.82995486 67.95554024 C-10.89828063 60.44988142 -10.95510945 52.94419099 -11.00312161 45.43837494 C-11.03208368 40.95014986 -11.06598537 36.46208854 -11.11177826 31.97400093 C-11.15450609 27.75438385 -11.18302545 23.53491208 -11.20043373 19.31511688 C-11.20931333 17.76302423 -11.22338375 16.21095165 -11.24291801 14.65895653 C-11.26872095 12.54661578 -11.27613377 10.43500269 -11.27874756 8.32252502 C-11.28758846 7.13839807 -11.29642937 5.95427111 -11.30553818 4.73426151 C-11.18795277 3.82422084 -11.07036736 2.91418016 -10.94921875 1.9765625 C-7.17487695 -0.53966537 -4.34700724 -0.18658587 0 0 Z " fill="#FEFEFE" transform="translate(390.94921875,126.0234375)"/>
<path d="M0 0 C11.88 0 23.76 0 36 0 C37.7910414 1.7910414 37.12616841 4.46363877 37.12698364 6.88162231 C37.12980347 8.16024643 37.13262329 9.43887054 37.13552856 10.75624084 C37.1335839 12.18661513 37.13153571 13.61698928 37.12939453 15.04736328 C37.13074859 16.54352359 37.13252854 18.03968356 37.13470459 19.5358429 C37.13928078 23.61257821 37.13748799 27.68928834 37.1343255 31.76602411 C37.13180005 36.02955349 37.13414022 40.29308065 37.13571167 44.55661011 C37.13753401 51.72426746 37.13512662 58.89191452 37.13037109 66.05957031 C37.12494078 74.33973905 37.1266819 82.61988311 37.1321975 90.90005124 C37.13674167 98.00670588 37.13737241 105.11335311 37.13475883 112.22000873 C37.13320163 116.46516948 37.13298678 120.71031866 37.13629532 124.95547867 C37.13919251 128.9527037 37.13716442 132.94989713 37.13140106 136.94711876 C37.13008283 138.41160594 37.13045162 139.87609579 37.13266373 141.34058189 C37.13541245 143.34587888 37.13134828 145.35118171 37.12698364 147.35647583 C37.12660662 148.47699907 37.12622959 149.59752232 37.12584114 150.75200081 C36.99279449 154.18597636 36.48600184 157.59798711 36 161 C24.12 161 12.24 161 0 161 C0 107.87 0 54.74 0 0 Z " fill="#FEFDFE" transform="translate(82,128)"/>
<path d="M0 0 C6.6 0 13.2 0 20 0 C20.72456563 3.55382188 21.44783683 7.10453442 22.140625 10.6640625 C22.6589029 13.31525332 23.21067771 15.94804967 23.796875 18.5859375 C26.99576809 34.15605998 27.24466068 50.1622839 28 66 C29.15012176 63.69975647 29.138479 62.35286913 29.17578125 59.79296875 C30.45398019 6.54601981 30.45398019 6.54601981 37 0 C38.4887186 -0.08669432 39.981445 -0.10703494 41.47265625 -0.09765625 C42.37177734 -0.09443359 43.27089844 -0.09121094 44.19726562 -0.08789062 C45.61555664 -0.07532227 45.61555664 -0.07532227 47.0625 -0.0625 C48.01189453 -0.05798828 48.96128906 -0.05347656 49.93945312 -0.04882812 C52.29303065 -0.0370011 54.64648477 -0.02052025 57 0 C57.02312343 10.54381312 57.04091509 21.08762025 57.05181217 31.63145351 C57.057041 36.52685374 57.06413864 41.42223668 57.07543945 46.31762695 C57.08626834 51.03787978 57.09227684 55.75811592 57.09487724 60.4783802 C57.09673149 62.28338954 57.10035209 64.08839792 57.10573006 65.89340019 C57.11294052 68.41259644 57.11399094 70.9317229 57.11352539 73.45092773 C57.11712067 74.20474228 57.12071594 74.95855682 57.12442017 75.73521423 C57.11405216 80.88594784 57.11405216 80.88594784 56 82 C52.37 82 48.74 82 45 82 C45 60.55 45 39.1 45 17 C44.01 27.56 43.02 38.12 42 49 C38.48514851 73.6039604 38.48514851 73.6039604 35 82 C30.71 82 26.42 82 22 82 C19.19981428 76.22461696 17.99954419 70.69496911 17 64.375 C16.75008301 62.84359375 16.75008301 62.84359375 16.49511719 61.28125 C14.45262536 48.25304207 13.21936622 35.12644927 12 22 C12.03029297 23.0108667 12.06058594 24.0217334 12.09179688 25.06323242 C13.09696974 58.90219731 13.09696974 58.90219731 13.125 71.6875 C13.12951172 72.52756592 13.13402344 73.36763184 13.13867188 74.2331543 C13.12448253 79.75103494 13.12448253 79.75103494 12 82 C10.18757948 82.02687279 8.37504767 82.04633715 6.5625 82.0625 C5.55316406 82.07410156 4.54382813 82.08570313 3.50390625 82.09765625 C1 82 1 82 0 81 C-0.09504251 78.47458998 -0.12557158 75.97662874 -0.11352539 73.45092773 C-0.11367142 72.66074249 -0.11381744 71.87055725 -0.1139679 71.056427 C-0.11326857 68.43212178 -0.10547527 65.80788664 -0.09765625 63.18359375 C-0.09579214 61.36898335 -0.0943682 59.55437244 -0.09336853 57.73976135 C-0.08954279 52.9540977 -0.07971204 48.1684642 -0.06866455 43.3828125 C-0.05845163 38.50325936 -0.05387117 33.62370136 -0.04882812 28.74414062 C-0.03808981 19.16274501 -0.02049257 9.58137972 0 0 Z " fill="#FDEEFC" transform="translate(210,373)"/>
<path d="M0 0 C23 0 23 0 30 3 C36.00467478 9.32071029 35.21790732 15.94453707 35.24023438 24.14135742 C35.24991906 26.29450421 35.28094452 28.44668732 35.3125 30.59960938 C35.31903289 31.97916103 35.32428224 33.35871948 35.328125 34.73828125 C35.34214355 36.61060425 35.34214355 36.61060425 35.35644531 38.52075195 C34.86933176 43.27544733 33.38146235 46.61853765 30 50 C29.35581773 56.16804522 31.09119547 61.30400599 33 67.125 C33.56898019 68.87551111 34.13169988 70.62807211 34.6875 72.3828125 C34.93886719 73.14996582 35.19023437 73.91711914 35.44921875 74.70751953 C36 77 36 77 36 82 C31.71 82 27.42 82 23 82 C21.76302083 77.05208333 20.52604167 72.10416667 19.2890625 67.15625 C19.06895508 66.29 18.84884766 65.42375 18.62207031 64.53125 C18.21918286 62.89187123 17.8417804 61.2459321 17.49511719 59.59375 C17.08830258 57.70707358 16.55537013 55.84840744 16 54 C15.01 53.67 14.02 53.34 13 53 C13 62.57 13 72.14 13 82 C8.71 82 4.42 82 0 82 C0 54.94 0 27.88 0 0 Z M13 12 C13 21.9 13 31.8 13 42 C18.58248112 42.60438648 18.58248112 42.60438648 20.8125 40.625 C23.94359454 36.34034431 23.18408515 31.74727077 23.1875 26.625 C23.19974609 25.6659375 23.21199219 24.706875 23.22460938 23.71875 C23.22654297 22.79320312 23.22847656 21.86765625 23.23046875 20.9140625 C23.23663208 19.6448999 23.23663208 19.6448999 23.24291992 18.35009766 C22.98097254 15.81592132 22.27330955 14.18705188 21 12 C18.36 12 15.72 12 13 12 Z " fill="#FDF3FB" transform="translate(395,373)"/>
<path d="M0 0 C21 0 21 0 30 4 C32 6.625 32 6.625 33 9 C33.495 9.99 33.495 9.99 34 11 C34.26682499 14.41050853 34.23158934 17.83022001 34.25 21.25 C34.270625 22.19230469 34.29125 23.13460938 34.3125 24.10546875 C34.3502144 30.8280613 33.51255208 35.27208631 28.8125 40.375 C28.214375 40.91125 27.61625 41.4475 27 42 C27.8971875 42.0928125 27.8971875 42.0928125 28.8125 42.1875 C31 43 31 43 32.61328125 44.87109375 C34.66958867 49.51081838 34.43464989 53.85778127 34.375 58.875 C34.38660156 59.84308594 34.39820313 60.81117188 34.41015625 61.80859375 C34.38632087 67.64826089 33.72726894 71.81963202 31 77 C30.34 77 29.68 77 29 77 C29 77.66 29 78.32 29 79 C20 82 20 82 0 81 C0 54.27 0 27.54 0 0 Z M12 12 C12 19.59 12 27.18 12 35 C14.31 35 16.62 35 19 35 C22.55771579 31.24664607 22.37639707 27.35897158 22.3125 22.375 C22.30863281 21.06273437 22.30476563 19.75046875 22.30078125 18.3984375 C22.26243556 14.87453537 22.26243556 14.87453537 20 12 C17.36 12 14.72 12 12 12 Z M12 46 C12 54.25 12 62.5 12 71 C17.62178859 71.53778137 17.62178859 71.53778137 20.3515625 69.5 C22.62177839 66.05701855 22.51196859 62.97929811 22.375 59 C22.37371094 58.2884375 22.37242187 57.576875 22.37109375 56.84375 C22.43939164 51.46637941 22.43939164 51.46637941 20 47 C17.36 46.67 14.72 46.34 12 46 Z " fill="#FDF4FD" transform="translate(134,373)"/>
<path d="M0 0 C1.65322266 0.01740234 1.65322266 0.01740234 3.33984375 0.03515625 C4.99693359 0.04869141 4.99693359 0.04869141 6.6875 0.0625 C7.54214844 0.07410156 8.39679688 0.08570313 9.27734375 0.09765625 C12.87988093 10.90526779 9.51559034 25.00871582 8.27734375 36.09765625 C8.46844727 35.46375977 8.65955078 34.82986328 8.85644531 34.17675781 C18.65299411 1.72200589 18.65299411 1.72200589 20.27734375 0.09765625 C22.46373828 0.02506679 24.65234764 0.01391842 26.83984375 0.03515625 C28.63615234 0.04869141 28.63615234 0.04869141 30.46875 0.0625 C31.39558594 0.07410156 32.32242188 0.08570313 33.27734375 0.09765625 C32.62312086 5.11861986 31.18879697 9.5586158 29.46484375 14.28515625 C29.19929688 15.03547119 28.93375 15.78578613 28.66015625 16.55883789 C27.49040639 19.84734664 26.28258111 23.08527977 24.921875 26.30078125 C24.54417969 27.203125 24.16648437 28.10546875 23.77734375 29.03515625 C23.43703125 29.78667969 23.09671875 30.53820312 22.74609375 31.3125 C21.48558718 38.80200984 25.05084589 47.19882279 27.15234375 54.34765625 C27.4148291 55.25499512 27.67731445 56.16233398 27.94775391 57.09716797 C28.93984188 60.52487744 29.94058002 63.95000092 30.9453125 67.37402344 C31.51693072 69.32280468 32.08478562 71.27268869 32.65234375 73.22265625 C33.12800781 74.83527344 33.12800781 74.83527344 33.61328125 76.48046875 C34.27734375 79.09765625 34.27734375 79.09765625 34.27734375 82.09765625 C30.31734375 82.09765625 26.35734375 82.09765625 22.27734375 82.09765625 C19.48572722 76.12041124 17.7681967 70.0296093 16.08984375 63.66015625 C15.81720703 62.64244141 15.54457031 61.62472656 15.26367188 60.57617188 C14.59689627 58.08453674 13.93492197 55.59173143 13.27734375 53.09765625 C10.71949817 56.93442461 10.14164219 58.74028678 9.99609375 63.2890625 C9.95871094 64.31580078 9.92132813 65.34253906 9.8828125 66.40039062 C9.81237375 68.57746988 9.7420617 70.75455323 9.671875 72.93164062 C9.63449219 73.95708984 9.59710938 74.98253906 9.55859375 76.0390625 C9.5131543 77.45747437 9.5131543 77.45747437 9.46679688 78.90454102 C9.27734375 81.09765625 9.27734375 81.09765625 8.27734375 82.09765625 C6.42446873 82.16992127 4.56900497 82.18146845 2.71484375 82.16015625 C1.19697266 82.14662109 1.19697266 82.14662109 -0.3515625 82.1328125 C-1.13402344 82.12121094 -1.91648437 82.10960937 -2.72265625 82.09765625 C-4.23408961 79.07478952 -3.86124432 75.9497535 -3.85205078 72.63452148 C-3.8538031 71.86530365 -3.85555542 71.09608582 -3.85736084 70.30355835 C-3.86177145 67.75443279 -3.85884443 65.20537629 -3.85546875 62.65625 C-3.85614195 60.89030443 -3.8571121 59.12435895 -3.85836792 57.3584137 C-3.85984376 53.65535603 -3.85769371 49.95232245 -3.85302734 46.24926758 C-3.84732596 41.49186762 -3.85061237 36.73452402 -3.85659981 31.97712612 C-3.86020492 28.33042472 -3.85906714 24.68373679 -3.85647202 21.03703499 C-3.85580282 19.28226782 -3.8566309 17.52749945 -3.85895157 15.77273369 C-3.86147774 13.32558808 -3.85763822 10.87853515 -3.85205078 8.43139648 C-3.85407501 7.69942551 -3.85609924 6.96745453 -3.85818481 6.21330261 C-3.83235136 0.1374588 -3.83235136 0.1374588 0 0 Z " fill="#FDF3FC" transform="translate(319.72265625,372.90234375)"/>
<path d="M0 0 C6.27 0 12.54 0 19 0 C21.60506515 11.16456495 22.8062653 22.2450775 23.86987305 33.65551758 C24.57383053 41.08700052 25.42474115 48.44516528 26.625 55.8125 C28.04233296 64.52643962 28.66878126 73.18272863 29 82 C27.02090602 82.02686553 25.04171029 82.04633375 23.0625 82.0625 C21.96035156 82.07410156 20.85820312 82.08570313 19.72265625 82.09765625 C17 82 17 82 16 81 C15.84379445 79.58672053 15.74943827 78.1664541 15.68359375 76.74609375 C15.64169922 75.89208984 15.59980469 75.03808594 15.55664062 74.15820312 C15.51732422 73.26037109 15.47800781 72.36253906 15.4375 71.4375 C15.39431641 70.53580078 15.35113281 69.63410156 15.30664062 68.70507812 C15.20022016 66.47024844 15.09957519 64.23514514 15 62 C11.7 62 8.4 62 5 62 C4.86722656 63.27617187 4.73445313 64.55234375 4.59765625 65.8671875 C4.41947335 67.53647996 4.24107686 69.20574964 4.0625 70.875 C3.97548828 71.71675781 3.88847656 72.55851562 3.79882812 73.42578125 C3.66831055 74.63427734 3.66831055 74.63427734 3.53515625 75.8671875 C3.456604 76.61081543 3.37805176 77.35444336 3.29711914 78.12060547 C3 80 3 80 2 82 C-1.96 82 -5.92 82 -10 82 C-10.13523781 76.82039201 -9.61660835 71.98377393 -8.75 66.875 C-6.87126542 55.1509626 -5.67867205 43.3556316 -4.44628906 31.55029297 C-3.65942602 24.02246753 -2.85202862 16.49838361 -1.94140625 8.984375 C-1.78486572 7.68725586 -1.6283252 6.39013672 -1.46704102 5.05371094 C-1 2 -1 2 0 0 Z M9 12 C8.48863151 16.2487105 7.99304789 20.49912767 7.5 24.75 C7.35691406 25.93722656 7.21382813 27.12445313 7.06640625 28.34765625 C6.19541606 35.9377136 5.81035701 43.36160174 6 51 C8.64 51 11.28 51 14 51 C13.94465088 50.43716309 13.88930176 49.87432617 13.83227539 49.29443359 C13.5737992 46.65480262 13.31788302 44.01493204 13.0625 41.375 C12.9696875 40.42181885 12.876875 39.4686377 12.78125 38.48657227 C12.15052769 31.89896641 11.6642624 25.32541203 11.34375 18.71484375 C11.00004427 16.0003496 10.27319774 14.3815278 9 12 Z " fill="#FDF3FC" transform="translate(282,373)"/>
<path d="M0 0 C3.96 0 7.92 0 12 0 C13.53016913 7.20894336 14.64886901 14.36916402 15.5 21.6875 C15.62673096 22.75734131 15.75346191 23.82718262 15.8840332 24.92944336 C17.15840247 35.93227816 18.1243363 46.95909127 19 58 C20.56586659 56.43413341 20.27273046 54.78635645 20.4296875 52.609375 C20.50131104 51.68229736 20.57293457 50.75521973 20.64672852 49.80004883 C20.72205811 48.79353271 20.7973877 47.7870166 20.875 46.75 C21.58809205 37.83530379 22.62035543 29.0301912 23.95996094 20.18945312 C24.82010174 14.46255163 25.44590173 8.76908517 25.7890625 2.984375 C26 1 26 1 27 0 C29.01964199 -0.07244053 31.04167124 -0.08377188 33.0625 -0.0625 C34.71958984 -0.04896484 34.71958984 -0.04896484 36.41015625 -0.03515625 C37.26480469 -0.02355469 38.11945313 -0.01195312 39 0 C40.71935349 3.43870698 39.33376366 7.30866218 38.75 11 C37.47897566 19.42173219 36.39145171 27.84903053 35.4375 36.3125 C35.31221924 37.42020752 35.18693848 38.52791504 35.05786133 39.66918945 C34.81573093 41.81101402 34.57378004 43.95285889 34.33203125 46.09472656 C33.61099883 52.40376019 32.81090778 58.70194955 32 65 C31.822764 66.42185598 31.64568534 67.84373158 31.46875 69.265625 C31.29197205 70.65628885 31.11489835 72.04691515 30.9375 73.4375 C30.78152344 74.67371094 30.62554687 75.90992188 30.46484375 77.18359375 C30 80 30 80 29 81 C27.59651265 81.09860131 26.18819523 81.13078937 24.78125 81.1328125 C23.50701172 81.13474609 23.50701172 81.13474609 22.20703125 81.13671875 C21.31371094 81.13285156 20.42039062 81.12898438 19.5 81.125 C18.60667969 81.12886719 17.71335937 81.13273437 16.79296875 81.13671875 C15.94347656 81.13542969 15.09398438 81.13414062 14.21875 81.1328125 C13.43435547 81.13168457 12.64996094 81.13055664 11.84179688 81.12939453 C10 81 10 81 9 80 C8.79000055 78.04583843 8.63167366 76.08599701 8.5 74.125 C8.27652749 70.81281812 8.05207935 68.15623804 7 65 C6.76236321 63.26594669 6.56320289 61.52649639 6.38671875 59.78515625 C6.27497314 58.71966553 6.16322754 57.6541748 6.0480957 56.55639648 C5.92909912 55.40341064 5.81010254 54.2504248 5.6875 53.0625 C4.49571483 41.81707407 3.01596553 30.64000452 1.27026367 19.46704102 C0.27662635 12.88946229 -0.17981175 6.65303493 0 0 Z " fill="#FBEFFD" transform="translate(69,373)"/>
<path d="M0 0 C1.20970459 0.00523682 2.41940918 0.01047363 3.66577148 0.01586914 C4.97094727 0.0190918 6.27612305 0.02231445 7.62084961 0.02563477 C9.00952213 0.03399138 10.39819401 0.04245634 11.78686523 0.05102539 C13.17944179 0.05603873 14.57202005 0.06060193 15.96459961 0.06469727 C19.38456394 0.07653105 22.80444367 0.09301659 26.22436523 0.11352539 C26.42010132 1.54992711 26.6056434 2.98772043 26.78686523 4.42602539 C26.8912793 5.2265332 26.99569336 6.02704102 27.10327148 6.85180664 C27.22436523 9.11352539 27.22436523 9.11352539 26.22436523 12.11352539 C20.61436523 12.11352539 15.00436523 12.11352539 9.22436523 12.11352539 C9.22436523 19.70352539 9.22436523 27.29352539 9.22436523 35.11352539 C14.44499798 35.07395382 14.44499798 35.07395382 19.66552734 35.0234375 C21.51870282 35.01628595 23.37185831 35.06324019 25.22436523 35.11352539 C26.22436523 36.11352539 26.22436523 36.11352539 26.32202148 38.39868164 C26.31041992 39.31520508 26.29881836 40.23172852 26.28686523 41.17602539 C26.2778418 42.09512695 26.26881836 43.01422852 26.25952148 43.96118164 C26.24791992 44.67145508 26.23631836 45.38172852 26.22436523 46.11352539 C23.13930435 47.14187902 20.95493803 47.24720973 17.72436523 47.23852539 C16.76530273 47.24110352 15.80624023 47.24368164 14.81811523 47.24633789 C12.22436523 47.11352539 12.22436523 47.11352539 9.22436523 46.11352539 C9.22436523 54.36352539 9.22436523 62.61352539 9.22436523 71.11352539 C14.83436523 71.11352539 20.44436523 71.11352539 26.22436523 71.11352539 C27.22436523 79.11352539 27.22436523 79.11352539 26.22436523 82.11352539 C16.65436523 82.11352539 7.08436523 82.11352539 -2.77563477 82.11352539 C-4.28706813 79.09065866 -3.91422284 75.96562264 -3.9050293 72.65039062 C-3.90678162 71.88117279 -3.90853394 71.11195496 -3.91033936 70.31942749 C-3.91474996 67.77030193 -3.91182294 65.22124543 -3.90844727 62.67211914 C-3.90912046 60.90617357 -3.91009062 59.14022809 -3.91134644 57.37428284 C-3.91282228 53.67122517 -3.91067222 49.96819159 -3.90600586 46.26513672 C-3.90030447 41.50773676 -3.90359088 36.75039316 -3.90957832 31.99299526 C-3.91318344 28.34629386 -3.91204565 24.69960593 -3.90945053 21.05290413 C-3.90878134 19.29813696 -3.90960941 17.54336859 -3.91193008 15.78860283 C-3.91445625 13.34145722 -3.91061674 10.89440429 -3.9050293 8.44726562 C-3.90705353 7.71529465 -3.90907776 6.98332367 -3.91116333 6.22917175 C-3.88535363 0.15891366 -3.88535363 0.15891366 0 0 Z " fill="#FDF5FD" transform="translate(177.775634765625,372.886474609375)"/>
<path d="M0 0 C9.9 0 19.8 0 30 0 C30 3.63 30 7.26 30 11 C29 12 29 12 25.18359375 12.09765625 C23.60152953 12.09191138 22.01948969 12.07889593 20.4375 12.0625 C17.653125 12.041875 14.86875 12.02125 12 12 C12 19.59 12 27.18 12 35 C17.61 35 23.22 35 29 35 C29.09765625 43.49609375 29.09765625 43.49609375 29 46 C28 47 28 47 24.62109375 47.09765625 C23.22652508 47.09191424 21.83198403 47.07890228 20.4375 47.0625 C17.983125 47.041875 15.52875 47.02125 13 47 C12.67 54.92 12.34 62.84 12 71 C17.94 71 23.88 71 30 71 C30 74.63 30 78.26 30 82 C20.1 82 10.2 82 0 82 C0 54.94 0 27.88 0 0 Z " fill="#FEFAFD" transform="translate(360,373)"/>
<path d="M0 0 C12.21 0 24.42 0 37 0 C37 37.29 37 74.58 37 113 C36.67 113 36.34 113 36 113 C35.16297869 88.42580829 34.86513121 63.88478205 34.93133545 39.29736328 C34.94372644 34.17706094 34.94801665 29.05674514 34.95378876 23.93643188 C34.96325263 16.29092831 34.98250011 8.64550824 35 1 C23.78 1 12.56 1 1 1 C1.0714624 5.8041748 1.1429248 10.60834961 1.21655273 15.55810547 C1.94982907 67.02926828 2.13018103 118.48990488 2.07202661 169.96572757 C2.06048714 180.37595735 2.05526286 190.78618814 2.05032361 201.19642282 C2.04010383 222.46429074 2.02190756 243.73214068 2 265 C12.56 265 23.12 265 34 265 C34.33 231.67 34.66 198.34 35 164 C35.66 164 36.32 164 37 164 C37.02316392 176.69125577 37.04093579 189.38250651 37.05181217 202.07377911 C37.05703211 207.96675551 37.06411369 213.85971746 37.07543945 219.75268555 C37.08629983 225.43905085 37.09228354 231.12540224 37.09487724 236.81177711 C37.0967258 238.9819034 37.1003355 241.15202891 37.10573006 243.32214928 C37.11298223 246.3602094 37.11398917 249.39821192 37.11352539 252.4362793 C37.11712067 253.33467529 37.12071594 254.23307129 37.12442017 255.15869141 C37.1230455 255.99015182 37.12167084 256.82161224 37.12025452 257.67826843 C37.12117631 258.39634517 37.1220981 259.1144219 37.12304783 259.85425854 C37 262 37 262 36 267 C24.12 267 12.24 267 0 267 C-0.12834876 238.6009792 -0.2558786 210.20195487 -0.38218227 181.80292489 C-0.39719713 178.42704756 -0.41221933 175.05117025 -0.42724609 171.67529297 C-0.43173202 170.66745441 -0.43173202 170.66745441 -0.43630856 169.63925548 C-0.48137002 159.5191046 -0.52692292 149.39895601 -0.57275391 139.27880859 C-0.62613256 127.49083407 -0.67889736 115.70285697 -0.73096704 103.91487658 C-0.75848062 97.69071986 -0.78627294 91.46656471 -0.81480408 85.24241257 C-0.87607153 71.84257499 -0.9326664 58.44273838 -0.97866821 45.04283905 C-0.99242744 41.03673149 -1.00804859 37.03063803 -1.02523804 33.02454376 C-1.04465035 28.42762594 -1.05911437 23.83072056 -1.06938839 19.23377347 C-1.07386615 17.57006892 -1.08003978 15.90636796 -1.08801365 14.2426765 C-1.09843742 12.00385831 -1.10275417 9.76511448 -1.10534668 7.52627563 C-1.10919121 6.28058115 -1.11303574 5.03488667 -1.11699677 3.75144386 C-1 1 -1 1 0 0 Z " fill="#FECAF3" transform="translate(157,67)"/>
<path d="M0 0 C3.96 0 7.92 0 12 0 C12 27.06 12 54.12 12 82 C8.04 82 4.08 82 0 82 C0 54.94 0 27.88 0 0 Z " fill="#FEF9FE" transform="translate(114,373)"/>
<path d="M0 0 C0.75414688 0.00202423 1.50829376 0.00404846 2.28529358 0.00613403 C3.4413485 0.00469894 3.4413485 0.00469894 4.62075806 0.00323486 C6.25413596 0.00255305 7.88751655 0.00440745 9.52088928 0.00857544 C12.02510155 0.01391646 14.52913386 0.00863429 17.03334045 0.00222778 C18.61732523 0.00288871 20.20130989 0.00417017 21.78529358 0.00613403 C22.53741623 0.0041098 23.28953888 0.00208557 24.06445312 0 C29.37178734 0.02399029 29.37178734 0.02399029 31.60169983 1.13894653 C31.62557159 23.40078558 31.64293457 45.6626224 31.653512 67.92447186 C31.65856429 78.27225371 31.6654092 88.62002734 31.67713928 98.96780396 C31.73980806 155.3666881 31.40472026 211.74554655 30.60169983 268.13894653 C18.72169983 268.13894653 6.84169983 268.13894653 -5.39830017 268.13894653 C-5.39830017 267.80894653 -5.39830017 267.47894653 -5.39830017 267.13894653 C5.82169983 266.80894653 17.04169983 266.47894653 28.60169983 266.13894653 C28.60169983 179.34894653 28.60169983 92.55894653 28.60169983 3.13894653 C17.38169983 3.13894653 6.16169983 3.13894653 -5.39830017 3.13894653 C-5.39830017 55.27894653 -5.39830017 107.41894653 -5.39830017 161.13894653 C-5.72830017 161.13894653 -6.05830017 161.13894653 -6.39830017 161.13894653 C-6.4216273 140.2948105 -6.43927843 119.45067661 -6.45011234 98.60653019 C-6.4552757 88.92893603 -6.46231914 79.25134996 -6.47373962 69.57376099 C-6.48368526 61.14194322 -6.49015331 52.71013132 -6.49238867 44.27830786 C-6.49369598 39.81087261 -6.49678312 35.34345413 -6.50403023 30.87602425 C-6.51078855 26.67610494 -6.51291752 22.4762094 -6.51140785 18.27628517 C-6.51168427 16.73026144 -6.5136905 15.18423697 -6.51750565 13.63821793 C-6.52243997 11.53658878 -6.52129945 9.43505081 -6.51855469 7.3334198 C-6.51947648 6.15444657 -6.52039827 4.97547335 -6.521348 3.76077366 C-6.30106785 -0.93281969 -4.168155 0.01892651 0 0 Z " fill="#FCBFD0" transform="translate(312.39830017089844,65.86105346679688)"/>
<path d="M0 0 C0.77261673 0.02502594 1.54523346 0.05005188 2.34126282 0.07583618 C4.80738665 0.15796602 7.27270113 0.25458125 9.73828125 0.3515625 C11.4107743 0.40980933 13.0833005 0.46711246 14.75585938 0.5234375 C18.85463162 0.6635341 22.95273725 0.81662341 27.05078125 0.9765625 C27.97749166 4.89440185 28.16422987 8.51007632 28.13980103 12.53143311 C28.13727746 13.17611738 28.1347539 13.82080166 28.13215387 14.48502183 C28.1224616 16.63688089 28.10542363 18.78861725 28.08837891 20.94042969 C28.07986853 22.48632074 28.07179755 24.03221427 28.06413269 25.57810974 C28.04197049 29.76993533 28.01329555 33.96169305 27.98317766 38.15346813 C27.9525013 42.5372091 27.92688944 46.92098017 27.90048218 51.30474854 C27.85532234 58.66201503 27.80584029 66.01924327 27.75390625 73.37646484 C27.69385123 81.8931006 27.64110196 90.4097586 27.59213793 98.9264648 C27.54487116 107.11227582 27.49203289 115.29804211 27.43677902 123.4838028 C27.41336024 126.97182595 27.39199537 130.4598529 27.37227249 133.94789886 C27.34886462 138.04860438 27.3206284 142.14924825 27.28858376 146.2498951 C27.27759219 147.75882128 27.26831145 149.26776098 27.26082039 150.7767086 C27.25036524 152.82770965 27.23324767 154.87867359 27.21572876 156.92962646 C27.20797739 158.07998257 27.20022602 159.23033867 27.19223976 160.41555405 C27.05078125 162.9765625 27.05078125 162.9765625 26.05078125 163.9765625 C23.46888679 164.07747725 20.91431625 164.11627749 18.33203125 164.109375 C17.17241882 164.11081009 17.17241882 164.11081009 15.98937988 164.11227417 C14.35180581 164.11295591 12.71422906 164.11110207 11.07666016 164.10693359 C8.56146204 164.10158521 6.04644252 164.10687876 3.53125 164.11328125 C1.94401002 164.11262047 0.35677015 164.1113393 -1.23046875 164.109375 C-1.98775269 164.11139923 -2.74503662 164.11342346 -3.52526855 164.11550903 C-8.83426743 164.09151382 -8.83426743 164.09151382 -9.94921875 162.9765625 C-10.06490664 160.90594601 -10.10949448 158.83135015 -10.12762451 156.75758362 C-10.13467919 156.10068839 -10.14173386 155.44379317 -10.14900231 154.76699203 C-10.1715144 152.54983832 -10.186825 150.33269276 -10.20214844 148.11547852 C-10.21662904 146.53238574 -10.23150538 144.94929654 -10.24674988 143.36621094 C-10.28673252 139.05432228 -10.32002672 134.74240734 -10.35133648 130.43044782 C-10.37102612 127.73971059 -10.39187838 125.04898481 -10.41309357 122.3582592 C-10.47908907 113.94879574 -10.54106779 105.53931697 -10.59727263 97.12978226 C-10.66229646 87.40489569 -10.74042349 77.68023144 -10.82995486 67.95554024 C-10.89828063 60.44988142 -10.95510945 52.94419099 -11.00312161 45.43837494 C-11.03208368 40.95014986 -11.06598537 36.46208854 -11.11177826 31.97400093 C-11.15450609 27.75438385 -11.18302545 23.53491208 -11.20043373 19.31511688 C-11.20931333 17.76302423 -11.22338375 16.21095165 -11.24291801 14.65895653 C-11.26872095 12.54661578 -11.27613377 10.43500269 -11.27874756 8.32252502 C-11.28758846 7.13839807 -11.29642937 5.95427111 -11.30553818 4.73426151 C-11.18795277 3.82422084 -11.07036736 2.91418016 -10.94921875 1.9765625 C-7.17487695 -0.53966537 -4.34700724 -0.18658587 0 0 Z M-7.94921875 1.9765625 C-7.94921875 54.4465625 -7.94921875 106.9165625 -7.94921875 160.9765625 C2.19200625 166.047175 14.71254702 161.9765625 26.05078125 161.9765625 C26.05078125 109.1765625 26.05078125 56.3765625 26.05078125 1.9765625 C14.83078125 1.9765625 3.61078125 1.9765625 -7.94921875 1.9765625 Z " fill="#FFEDE4" transform="translate(390.94921875,126.0234375)"/>
<path d="M0 0 C12.21 0 24.42 0 37 0 C38.67231832 1.67231832 38.12216652 3.71205741 38.12908131 5.94493443 C38.12471205 7.0144669 38.12471205 7.0144669 38.12025452 8.10560608 C38.12110894 8.85783414 38.12196337 9.6100622 38.12284368 10.38508505 C38.12450074 12.92479715 38.11897345 15.4644443 38.11352539 18.00415039 C38.11324354 19.81708271 38.11340121 21.63001514 38.1139679 23.44294739 C38.11425596 28.38075713 38.10835781 33.31854281 38.10139394 38.25634694 C38.09516186 43.41067843 38.09455672 48.56501042 38.09336853 53.71934509 C38.09025478 63.48704092 38.08204081 73.25472562 38.07201904 83.02241653 C38.06085925 94.13951812 38.05534779 105.25662022 38.05032361 116.37372601 C38.03985823 139.24915686 38.02225795 162.12457781 38 185 C37.67 185 37.34 185 37 185 C36.04153602 147.17344832 35.86980589 109.37153805 35.92797339 71.53620327 C35.93945782 63.92463482 35.94472449 56.31306509 35.94967639 48.70149004 C35.95993276 33.1343148 35.97815347 17.56716395 36 2 C24.45 2 12.9 2 1 2 C1 43.91 1 85.82 1 129 C0.67 129 0.34 129 0 129 C0 86.43 0 43.86 0 0 Z " fill="#FDA8C6" transform="translate(231,34)"/>
<path d="M0 0 C11.88 0 23.76 0 36 0 C36 0.33 36 0.66 36 1 C25.11 1 14.22 1 3 1 C2.67 53.47 2.34 105.94 2 160 C12.89 160 23.78 160 35 160 C34.96057303 149.78403043 34.96057303 149.78403043 34.90991211 139.56811523 C34.90741455 138.28622314 34.90491699 137.00433105 34.90234375 135.68359375 C34.89710693 134.37962646 34.89187012 133.07565918 34.88647461 131.73217773 C34.99854025 128.04798967 35.40625214 124.63028534 36 121 C36.33 121 36.66 121 37 121 C37.02485982 125.57152925 37.04293526 130.14301847 37.05493164 134.71459961 C37.05993684 136.26734096 37.06674301 137.82007766 37.07543945 139.37280273 C37.08767307 141.61443232 37.09326657 143.85599918 37.09765625 146.09765625 C37.10281754 146.78336197 37.10797882 147.46906769 37.11329651 148.17555237 C37.11380578 152.62664156 36.64002912 156.51979617 36 161 C24.12 161 12.24 161 0 161 C0 107.87 0 54.74 0 0 Z " fill="#F7BAF4" transform="translate(82,128)"/>
<path d="M0 0 C0.33 0 0.66 0 1 0 C1 50.16 1 100.32 1 152 C11.89 152 22.78 152 34 152 C34.33 118.67 34.66 85.34 35 51 C35.66 51 36.32 51 37 51 C37.02316392 63.69125577 37.04093579 76.38250651 37.05181217 89.07377911 C37.05703211 94.96675551 37.06411369 100.85971746 37.07543945 106.75268555 C37.08629983 112.43905085 37.09228354 118.12540224 37.09487724 123.81177711 C37.0967258 125.9819034 37.1003355 128.15202891 37.10573006 130.32214928 C37.11298223 133.3602094 37.11398917 136.39821192 37.11352539 139.4362793 C37.11712067 140.33467529 37.12071594 141.23307129 37.12442017 142.15869141 C37.1230455 142.99015182 37.12167084 143.82161224 37.12025452 144.67826843 C37.12117631 145.39634517 37.1220981 146.1144219 37.12304783 146.85425854 C37 149 37 149 36 154 C24.12 154 12.24 154 0 154 C0 103.18 0 52.36 0 0 Z " fill="#FDB7FA" transform="translate(157,180)"/>
<path d="M0 0 C0.33 0 0.66 0 1 0 C1.13316532 13.13931682 1.26367074 26.27865747 1.39115143 39.41803074 C1.45047845 45.52503784 1.51058493 51.63203478 1.57275391 57.73901367 C1.89871445 89.82726241 2.0679851 121.91008676 2 154 C18.83 154.495 18.83 154.495 36 155 C36 155.66 36 156.32 36 157 C31.03377651 157.02465098 26.06758834 157.04283649 21.10131836 157.05493164 C19.41055684 157.0599719 17.71979971 157.06680405 16.02905273 157.07543945 C13.60399293 157.08751857 11.17899056 157.09323123 8.75390625 157.09765625 C7.61327477 157.10539818 7.61327477 157.10539818 6.44960022 157.11329651 C4.6326743 157.11349238 2.81586873 157.06197277 1 157 C0 156 0 156 -0.12304783 153.44064236 C-0.12212604 152.29116651 -0.12120424 151.14169065 -0.12025452 149.9573822 C-0.12162918 148.64339951 -0.12300385 147.32941681 -0.12442017 145.97561646 C-0.12088054 144.50579812 -0.11724573 143.03598 -0.11352539 141.56616211 C-0.11324353 140.02908836 -0.11340123 138.49201447 -0.1139679 136.9549408 C-0.11425591 132.7691714 -0.10835852 128.58343041 -0.10139394 124.39766765 C-0.09516109 120.02809844 -0.09455666 115.65852865 -0.09336853 111.28895569 C-0.09025501 103.00872953 -0.08204135 94.7285165 -0.07201904 86.44829613 C-0.06085854 77.02402841 -0.05534761 67.59976008 -0.05032361 58.1754874 C-0.03985875 38.78365081 -0.02225891 19.39182646 0 0 Z " fill="#FEAEBA" transform="translate(381,133)"/>
<path d="M0 0 C6.6 0 13.2 0 20 0 C20 26.73 20 53.46 20 81 C19.01 81.495 19.01 81.495 18 82 C18 55.6 18 29.2 18 2 C12.72 2 7.44 2 2 2 C2 2.66 2 3.32 2 4 C1.34 4 0.68 4 0 4 C-0.63684227 9.64060295 -1.22317272 15.27870303 -1.71875 20.93359375 C-2 23 -2 23 -3 25 C-3.23172827 27.54615009 -3.41894529 30.07396225 -3.5625 32.625 C-3.60568359 33.33140625 -3.64886719 34.0378125 -3.69335938 34.765625 C-3.79944751 36.51018537 -3.90022889 38.25506697 -4 40 C-4.66 40 -5.32 40 -6 40 C-5.72033488 30.3655365 -4.65911583 21.0565759 -3 11.5625 C-2.82178711 10.53761475 -2.64357422 9.51272949 -2.45996094 8.45678711 C-1.1368134 1.1368134 -1.1368134 1.1368134 0 0 Z " fill="#FDCFFC" transform="translate(247,373)"/>
<path d="M0 0 C3.96 0 7.92 0 12 0 C12 18.48 12 36.96 12 56 C11.67 56 11.34 56 11 56 C10.67 38.18 10.34 20.36 10 2 C7.36 2 4.72 2 2 2 C2.00222061 2.92850266 2.00444122 3.85700531 2.00672913 4.81364441 C2.02677451 13.5681917 2.04199583 22.32273128 2.05181217 31.07729626 C2.0570285 35.57798937 2.06410349 40.07866351 2.07543945 44.5793457 C2.0863127 48.92355346 2.09228626 53.26774296 2.09487724 57.61196327 C2.09672348 59.26853027 2.10032871 60.92509628 2.10573006 62.5816555 C2.11299935 64.90366135 2.11398845 67.225592 2.11352539 69.54760742 C2.11712067 70.23093643 2.12071594 70.91426544 2.12442017 71.61830139 C2.11668885 75.20614391 1.84558376 78.51026226 1 82 C0.67 82 0.34 82 0 82 C0 54.94 0 27.88 0 0 Z " fill="#F3B6F8" transform="translate(114,373)"/>
<path d="M0 0 C0.66 0 1.32 0 2 0 C1.67 2.97 1.34 5.94 1 9 C-4.61 9 -10.22 9 -16 9 C-16 16.59 -16 24.18 -16 32 C-10.77936725 31.96042843 -10.77936725 31.96042843 -5.55883789 31.90991211 C-3.70566241 31.90276055 -1.85250692 31.9497148 0 32 C1 33 1 33 1.09765625 35.28515625 C1.08605469 36.20167969 1.07445312 37.11820312 1.0625 38.0625 C1.05347656 38.98160156 1.04445312 39.90070313 1.03515625 40.84765625 C1.02355469 41.55792969 1.01195312 42.26820313 1 43 C-2.08506088 44.02835363 -4.2694272 44.13368434 -7.5 44.125 C-8.93859375 44.12886719 -8.93859375 44.12886719 -10.40625 44.1328125 C-13 44 -13 44 -16 43 C-16 51.25 -16 59.5 -16 68 C-16.66 68 -17.32 68 -18 68 C-18 59.42 -18 50.84 -18 42 C-14.33012779 40.77670926 -11.66032178 41.11978994 -7.8125 41.4375 C-5.90404297 41.59025391 -5.90404297 41.59025391 -3.95703125 41.74609375 C-2.98121094 41.82988281 -2.00539062 41.91367187 -1 42 C-1 39.03 -1 36.06 -1 33 C-6.28 33 -11.56 33 -17 33 C-17.19372104 28.85436965 -17.38027692 24.70863754 -17.5625 20.5625 C-17.61857422 19.37849609 -17.67464844 18.19449219 -17.73242188 16.97460938 C-17.78076172 15.84990234 -17.82910156 14.72519531 -17.87890625 13.56640625 C-17.9260376 12.52427979 -17.97316895 11.48215332 -18.02172852 10.40844727 C-18 8 -18 8 -17 7 C-14.13732433 6.92674832 -11.299281 6.90761795 -8.4375 6.9375 C-7.63119141 6.94201172 -6.82488281 6.94652344 -5.99414062 6.95117188 C-3.99606244 6.96299482 -1.99802217 6.98093086 0 7 C0 4.69 0 2.38 0 0 Z " fill="#FCADFC" transform="translate(203,376)"/>
<path d="M0 0 C9.9 0 19.8 0 30 0 C29.67 1.32 29.34 2.64 29 4 C29 3.01 29 2.02 29 1 C19.76 1 10.52 1 1 1 C1 27.07 1 53.14 1 80 C9.58 80 18.16 80 27 80 C27.66 77.03 28.32 74.06 29 71 C29.33 71 29.66 71 30 71 C30 74.63 30 78.26 30 82 C20.1 82 10.2 82 0 82 C0 54.94 0 27.88 0 0 Z " fill="#FDCEFA" transform="translate(360,373)"/>
<path d="M0 0 C0.33 0 0.66 0 1 0 C1.77064052 10.16093513 2.18825609 20.2735244 2.31640625 30.46484375 C2.33705812 31.87830598 2.35805616 33.29176319 2.37937927 34.70521545 C2.43375257 38.36941375 2.48352382 42.03365955 2.53222656 45.69793701 C2.58307337 49.45947336 2.63842458 53.2209434 2.69335938 56.98242188 C2.79989915 64.32155793 2.90156114 71.66075033 3 79 C5.64 79 8.28 79 11 79 C11.33 71.74 11.66 64.48 12 57 C12.33 57 12.66 57 13 57 C13.02887236 60.81248426 13.04675492 64.6249407 13.0625 68.4375 C13.07087891 69.52611328 13.07925781 70.61472656 13.08789062 71.73632812 C13.09111328 72.77080078 13.09433594 73.80527344 13.09765625 74.87109375 C13.10289307 75.82943115 13.10812988 76.78776855 13.11352539 77.77514648 C13 80 13 80 12 81 C10.14712498 81.07226502 8.29166122 81.0838122 6.4375 81.0625 C4.91962891 81.04896484 4.91962891 81.04896484 3.37109375 81.03515625 C2.58863281 81.02355469 1.80617188 81.01195312 1 81 C-0.51382165 77.9723567 -0.12984253 74.84098447 -0.11352539 71.52099609 C-0.11367142 70.75017197 -0.11381744 69.97934784 -0.1139679 69.18516541 C-0.11326989 66.63122771 -0.10548275 64.07736249 -0.09765625 61.5234375 C-0.09579167 59.75509684 -0.09436796 57.98675567 -0.09336853 56.21841431 C-0.0895465 51.55935241 -0.07971888 46.90032158 -0.06866455 42.24127197 C-0.05844369 37.48897726 -0.05386946 32.73667753 -0.04882812 27.984375 C-0.03809634 18.65623633 -0.02102367 9.32812075 0 0 Z " fill="#FEC9FE" transform="translate(316,374)"/>
<path d="M0 0 C0.33 0 0.66 0 1 0 C1 15.51 1 31.02 1 47 C12.22 47.33 23.44 47.66 35 48 C35 48.66 35 49.32 35 50 C23.45 50 11.9 50 0 50 C0 33.5 0 17 0 0 Z " fill="#FFA8FE" transform="translate(382,240)"/>
<path d="M0 0 C5.4759375 -0.0928125 5.4759375 -0.0928125 11.0625 -0.1875 C12.76805054 -0.22846802 12.76805054 -0.22846802 14.50805664 -0.27026367 C20.47936315 -0.31908402 24.72221366 0.14774951 30 3 C26.98968256 3.93423645 26.13349732 4.04449911 23 3 C21.37432921 2.85284801 19.74413143 2.75278133 18.11328125 2.68359375 C17.17548828 2.64169922 16.23769531 2.59980469 15.27148438 2.55664062 C14.29501953 2.51732422 13.31855469 2.47800781 12.3125 2.4375 C11.32443359 2.39431641 10.33636719 2.35113281 9.31835938 2.30664062 C6.87904454 2.20058346 4.43962887 2.09852286 2 2 C2.01160156 3.10214844 2.02320313 4.20429688 2.03515625 5.33984375 C2.11041905 15.93543465 1.74915292 26.43159278 1 37 C0.67 37 0.34 37 0 37 C0 24.79 0 12.58 0 0 Z " fill="#FAC6F0" transform="translate(395,373)"/>
<path d="M0 0 C0.33 0 0.66 0 1 0 C1.20619235 8.51116218 1.08003741 16.85043888 0.0625 25.3125 C-0.02435059 26.03493896 -0.11120117 26.75737793 -0.20068359 27.50170898 C-0.58317197 30.46864517 -1.05143891 33.15431674 -2 36 C0.97 36.33 3.94 36.66 7 37 C6.97679687 36.33613281 6.95359375 35.67226563 6.9296875 34.98828125 C6.75043937 26.21792619 6.75043937 26.21792619 9 22 C9.33 22 9.66 22 10 22 C10.25287193 28.06892629 9.69832609 33.16200408 8 39 C4.04 39 0.08 39 -4 39 C-4.17745609 33.28282782 -3.48686493 27.94764298 -2.5625 22.3125 C-1.3910407 14.8866625 -0.44271676 7.5109189 0 0 Z " fill="#F8B0F8" transform="translate(276,416)"/>
<path d="M0 0 C0.66 0.33 1.32 0.66 2 1 C2.44921875 4.08984375 2.44921875 4.08984375 2.6875 7.9375 C2.77386719 9.20464844 2.86023438 10.47179687 2.94921875 11.77734375 C3 15 3 15 2 17 C10.91 17 19.82 17 29 17 C29 17.66 29 18.32 29 19 C19.43 19 9.86 19 0 19 C-1.66413655 15.6717269 -0.81867406 12.00266027 -0.5625 8.375 C-0.51029297 7.57320313 -0.45808594 6.77140625 -0.40429688 5.9453125 C-0.27451629 3.96320897 -0.13790265 1.98155501 0 0 Z " fill="#FEC3FE" transform="translate(175,436)"/>
<path d="M0 0 C0.66 0 1.32 0 2 0 C2 6.6 2 13.2 2 20 C18.335 20.495 18.335 20.495 35 21 C35 21.33 35 21.66 35 22 C23.45 22 11.9 22 0 22 C0 14.74 0 7.48 0 0 Z " fill="#FFDFFD" transform="translate(307,311)"/>
<path d="M0 0 C2.475 0.495 2.475 0.495 5 1 C5.66408409 12.68076488 6.15956375 24.29865851 6 36 C5.67 36 5.34 36 5 36 C3.71237806 25.6740221 2.6257441 15.3906455 2 5 C1.34 5.99 0.68 6.98 0 8 C0 5.36 0 2.72 0 0 Z " fill="#F99EF5" transform="translate(290,384)"/>
<path d="M0 0 C3.96 0 7.92 0 12 0 C13.89489524 9.09549717 15.19404393 17.68589124 15 27 C14.34 27 13.68 27 13 27 C12.34 18.75 11.68 10.5 11 2 C8.03 2 5.06 2 2 2 C1.67 4.64 1.34 7.28 1 10 C0.67 10 0.34 10 0 10 C0 6.7 0 3.4 0 0 Z " fill="#F2B1FB" transform="translate(69,373)"/>
<path d="M0 0 C5.61 0 11.22 0 17 0 C17.09765625 8.49609375 17.09765625 8.49609375 17 11 C16 12 16 12 12.83984375 12.09765625 C10.90818359 12.08025391 10.90818359 12.08025391 8.9375 12.0625 C7.64714844 12.05347656 6.35679687 12.04445313 5.02734375 12.03515625 C4.02832031 12.02355469 3.02929688 12.01195312 2 12 C1.67 11.34 1.34 10.68 1 10 C5.62 10 10.24 10 15 10 C15 7.03 15 4.06 15 1 C10.05 1 5.1 1 0 1 C0 0.67 0 0.34 0 0 Z " fill="#FDA6F7" transform="translate(372,408)"/>
<path d="M0 0 C4.29 0 8.58 0 13 0 C11.875 6.75 11.875 6.75 10.80859375 9.8671875 C10.58623047 10.52460938 10.36386719 11.18203125 10.13476562 11.859375 C9.90466797 12.52453125 9.67457031 13.1896875 9.4375 13.875 C9.20353516 14.56335938 8.96957031 15.25171875 8.72851562 15.9609375 C8.15647501 17.64203645 7.57881544 19.32122163 7 21 C6.67 21 6.34 21 6 21 C6 18.69 6 16.38 6 14 C6.66 14 7.32 14 8 14 C8.06058594 13.37351562 8.12117188 12.74703125 8.18359375 12.1015625 C8.26738281 11.28429687 8.35117187 10.46703125 8.4375 9.625 C8.51871094 8.81289063 8.59992188 8.00078125 8.68359375 7.1640625 C9 5 9 5 10 3 C5.98195309 2.15901344 2.98196457 1.94595055 -1 3 C-0.67 2.01 -0.34 1.02 0 0 Z " fill="#FCBFF3" transform="translate(340,373)"/>
<path d="M0 0 C0.33 0 0.66 0 1 0 C0.88512252 1.58409994 0.75765492 3.16728963 0.625 4.75 C0.55539063 5.63171875 0.48578125 6.5134375 0.4140625 7.421875 C0 10 0 10 -2 14 C-6.29 14 -10.58 14 -15 14 C-15.33 12.35 -15.66 10.7 -16 9 C-15.67 9.99 -15.34 10.98 -15 12 C-11.04 12 -7.08 12 -3 12 C-2.67 8.7 -2.34 5.4 -2 2 C-1.34 2 -0.68 2 0 2 C0 1.34 0 0.68 0 0 Z " fill="#FFBFFF" transform="translate(247,441)"/>
<path d="M0 0 C2.53605069 2.53605069 2.79250373 4.46876556 3.625 7.9375 C3.88539063 8.99839844 4.14578125 10.05929687 4.4140625 11.15234375 C5 14 5 14 5 17 C1.04 17 -2.92 17 -7 17 C-7.33 15.35 -7.66 13.7 -8 12 C-7.67 12.99 -7.34 13.98 -7 15 C-3.7 15 -0.4 15 3 15 C2.67 13.02 2.34 11.04 2 9 C1.34 9 0.68 9 0 9 C0 6.03 0 3.06 0 0 Z " fill="#FDB1F9" transform="translate(349,438)"/>
<path d="M0 0 C0.33 0 0.66 0 1 0 C1.31366039 10.83870913 0.36326269 21.2643063 -1 32 C-1.33 32 -1.66 32 -2 32 C-2.02886984 28.02084841 -2.04675406 24.04172347 -2.0625 20.0625 C-2.07087891 18.92619141 -2.07925781 17.78988281 -2.08789062 16.61914062 C-2.09111328 15.53955078 -2.09433594 14.45996094 -2.09765625 13.34765625 C-2.10289307 12.34742432 -2.10812988 11.34719238 -2.11352539 10.31665039 C-2 8 -2 8 -1 7 C-0.63239269 4.67182036 -0.29758419 2.3381615 0 0 Z " fill="#F7B8F6" transform="translate(289,392)"/>
<path d="M0 0 C0.33 0 0.66 0 1 0 C1.25287193 6.06892629 0.69832609 11.16200408 -1 17 C-4.3 17 -7.6 17 -11 17 C-10.67 16.34 -10.34 15.68 -10 15 C-7.36 15 -4.72 15 -2 15 C-2.02320313 14.33613281 -2.04640625 13.67226563 -2.0703125 12.98828125 C-2.24956063 4.21792619 -2.24956063 4.21792619 0 0 Z " fill="#FCCAFC" transform="translate(285,438)"/>
<path d="M0 0 C2 3 2 3 2 8 C-2.29 8 -6.58 8 -11 8 C-11.33 5.69 -11.66 3.38 -12 1 C-11.01 1.495 -11.01 1.495 -10 2 C-10 3.32 -10 4.64 -10 6 C-6.7 6 -3.4 6 0 6 C0 4.02 0 2.04 0 0 Z " fill="#FBAFEE" transform="translate(429,447)"/>
<path d="M0 0 C5.27352979 9.68290973 4.22533845 21.32146106 4 32 C3.67 32 3.34 32 3 32 C2.49547893 27.60467325 1.99717184 23.20866362 1.5 18.8125 C1.35691406 17.56662109 1.21382813 16.32074219 1.06640625 15.03710938 C0.93105469 13.83505859 0.79570313 12.63300781 0.65625 11.39453125 C0.53056641 10.28956299 0.40488281 9.18459473 0.27539062 8.04614258 C0.03078724 5.34054288 -0.05299995 2.71403915 0 0 Z " fill="#E9A6F8" transform="translate(73,406)"/>
<path d="M0 0 C0.66 0 1.32 0 2 0 C1.67 1.65 1.34 3.3 1 5 C-4.61 5 -10.22 5 -16 5 C-16 4.34 -16 3.68 -16 3 C-10.72 3 -5.44 3 0 3 C0 2.01 0 1.02 0 0 Z " fill="#F9A6E7" transform="translate(388,380)"/>
<path d="M0 0 C0.66 0 1.32 0 2 0 C2.82787644 6.21544161 3.23572229 11.82138855 2 18 C1.34 18.33 0.68 18.66 0 19 C0 12.73 0 6.46 0 0 Z " fill="#F5C2E7" transform="translate(418,390)"/>
<path d="M0 0 C0.66 0.33 1.32 0.66 2 1 C2.484375 4.01953125 2.484375 4.01953125 2.75 7.8125 C2.84796875 9.05644531 2.9459375 10.30039062 3.046875 11.58203125 C3.00249434 14.81812088 2.74081871 16.34190375 1 19 C0.34 18.34 -0.32 17.68 -1 17 C-0.98251781 14.08047432 -0.86055367 11.27702115 -0.625 8.375 C-0.56828125 7.57320313 -0.5115625 6.77140625 -0.453125 5.9453125 C-0.31152018 3.96284502 -0.15697741 1.98130949 0 0 Z " fill="#FEDCFE" transform="translate(175,436)"/>
<path d="M0 0 C0.66 0 1.32 0 2 0 C1.79503906 0.65226562 1.59007812 1.30453125 1.37890625 1.9765625 C-0.05954648 6.64293069 -1.30787907 11.15515351 -2 16 C-2.31674575 17.33737094 -2.64270064 18.67288808 -3 20 C-5 17 -5 17 -4.6875 14.6875 C-4.460625 13.800625 -4.23375 12.91375 -4 12 C-3.66055205 10.00102872 -3.32578384 8.00124361 -3 6 C-2.34 6 -1.68 6 -1 6 C-0.67 4.02 -0.34 2.04 0 0 Z " fill="#F5BDF2" transform="translate(344,394)"/>
<path d="M0 0 C3 1 3 1 4.67578125 2.85546875 C6.68466239 7.62582071 6.31514532 12.19686818 6.1875 17.3125 C6.17396484 18.33923828 6.16042969 19.36597656 6.14648438 20.42382812 C6.11123883 22.94975909 6.061967 25.4746066 6 28 C5.67 28 5.34 28 5 28 C4.98018066 27.42556152 4.96036133 26.85112305 4.93994141 26.25927734 C4.84407976 23.63076167 4.73465126 21.00297509 4.625 18.375 C4.5940625 17.47136719 4.563125 16.56773437 4.53125 15.63671875 C4.31706465 10.74615328 3.87645845 6.59198368 2 2 C1.34 2 0.68 2 0 2 C0 1.34 0 0.68 0 0 Z " fill="#FAD5FA" transform="translate(162,415)"/>
<path d="M0 0 C2.475 0.495 2.475 0.495 5 1 C5 6.61 5 12.22 5 18 C4.67 18 4.34 18 4 18 C3.90912109 16.71802734 3.90912109 16.71802734 3.81640625 15.41015625 C3.73261719 14.30542969 3.64882813 13.20070313 3.5625 12.0625 C3.48128906 10.96035156 3.40007812 9.85820312 3.31640625 8.72265625 C3.29581916 6.08890097 3.29581916 6.08890097 2 5 C1.34 5.99 0.68 6.98 0 8 C0 5.36 0 2.72 0 0 Z " fill="#F5B8F2" transform="translate(290,384)"/>
<path d="M0 0 C2.52588702 2.36292656 3.88820837 3.66462511 5 7 C5.07029121 9.57265818 5.09370832 12.11641431 5.0625 14.6875 C5.05798828 15.38939453 5.05347656 16.09128906 5.04882812 16.81445312 C5.03706927 18.54300538 5.01913454 20.27151365 5 22 C4.67 22 4.34 22 4 22 C3.96261719 21.20335937 3.92523438 20.40671875 3.88671875 19.5859375 C3.51730048 13.63178425 3.02110797 9.25410083 0 4 C0 2.68 0 1.36 0 0 Z " fill="#FCC1E7" transform="translate(425,377)"/>
<path d="M0 0 C2.58845914 5.17691829 3.12388292 8.80778801 3.0625 14.625 C3.05798828 15.42679687 3.05347656 16.22859375 3.04882812 17.0546875 C3.03703168 19.03649006 3.01909605 21.01825433 3 23 C2.67 23 2.34 23 2 23 C1.66114962 20.47980028 1.32879665 17.95901484 1 15.4375 C0.90460938 14.73302734 0.80921875 14.02855469 0.7109375 13.30273438 C0.13333583 8.82632145 -0.09489383 4.51338762 0 0 Z " fill="#EBACF5" transform="translate(70,383)"/>
<path d="M0 0 C0.33 0 0.66 0 1 0 C1.0816082 2.37570543 1.14077222 4.74855841 1.1875 7.125 C1.21263672 7.79015625 1.23777344 8.4553125 1.26367188 9.140625 C1.33320714 13.86902292 0.40278375 16.95121479 -2 21 C-2.33 21 -2.66 21 -3 21 C-3.25 15.375 -3.25 15.375 -1 12 C-0.54084493 9.03157342 -0.54084493 9.03157342 -0.375 5.8125 C-0.30023438 4.72582031 -0.22546875 3.63914062 -0.1484375 2.51953125 C-0.09945313 1.68808594 -0.05046875 0.85664063 0 0 Z " fill="#FEC3EB" transform="translate(429,400)"/>
<path d="M0 0 C0.99 0.33 1.98 0.66 3 1 C4.94871307 6.74357537 5.25111884 11.97314783 5 18 C4.67 18 4.34 18 4 18 C3.51990738 15.93771534 3.04096456 13.87516299 2.5625 11.8125 C2.29566406 10.66394531 2.02882813 9.51539063 1.75390625 8.33203125 C1.12687799 5.56076125 0.54100823 2.78908126 0 0 Z " fill="#F9B6EB" transform="translate(412,430)"/>
<path d="M0 0 C0.33 0 0.66 0 1 0 C1.24954005 1.43410368 1.47392642 2.87260072 1.6875 4.3125 C1.81511719 5.11300781 1.94273437 5.91351563 2.07421875 6.73828125 C2 9 2 9 0.8125 10.78125 C-1.51125147 12.34377254 -2.91277775 12.3081401 -5.6875 12.1875 C-6.89986328 12.14689453 -6.89986328 12.14689453 -8.13671875 12.10546875 C-8.75160156 12.07066406 -9.36648437 12.03585937 -10 12 C-10 11.67 -10 11.34 -10 11 C-7.69 11 -5.38 11 -3 11 C-1.38935371 7.34920174 -0.55105909 3.9492568 0 0 Z " fill="#FBD1FE" transform="translate(156,397)"/>
<path d="M0 0 C1 1 1 1 1.09765625 3.28515625 C1.08605469 4.20167969 1.07445312 5.11820312 1.0625 6.0625 C1.05347656 6.98160156 1.04445312 7.90070313 1.03515625 8.84765625 C1.02355469 9.55792969 1.01195312 10.26820313 1 11 C0.67 11 0.34 11 0 11 C-0.66 8.03 -1.32 5.06 -2 2 C-4.64 1.67 -7.28 1.34 -10 1 C-10 0.67 -10 0.34 -10 0 C-6.31416418 -0.94778635 -3.67716794 -1.02143554 0 0 Z " fill="#F6ADFA" transform="translate(156,384)"/>
<path d="M0 0 C0.33 0 0.66 0 1 0 C0.88557539 1.60495567 0.75805306 3.20898119 0.625 4.8125 C0.55539063 5.70582031 0.48578125 6.59914063 0.4140625 7.51953125 C0 10 0 10 -2 13 C-2 9.37 -2 5.74 -2 2 C-1.34 2 -0.68 2 0 2 C0 1.34 0 0.68 0 0 Z " fill="#FDCDFB" transform="translate(247,441)"/>
<path d="M0 0 C0.33 0 0.66 0 1 0 C1.77249145 5.40744018 2.09752461 10.53862186 2 16 C-0.78441832 11.82337252 -1.21506149 9.18046461 -0.5625 4.25 C-0.46066406 3.45078125 -0.35882813 2.6515625 -0.25390625 1.828125 C-0.17011719 1.22484375 -0.08632813 0.6215625 0 0 Z " fill="#F8ADF0" transform="translate(302,382)"/>
<path d="M0 0 C1.41778293 2.83556587 0.86257622 4.9908706 0.5625 8.125 C0.46066406 9.22070312 0.35882813 10.31640625 0.25390625 11.4453125 C0.17011719 12.28835937 0.08632813 13.13140625 0 14 C-0.33 14 -0.66 14 -1 14 C-1.66 10.04 -2.32 6.08 -3 2 C-2.01 1.34 -1.02 0.68 0 0 Z " fill="#FFEDC6" transform="translate(383,126)"/>
<path d="M0 0 C0.33 0 0.66 0 1 0 C1.125 6.75 1.125 6.75 0 9 C-1.65 9 -3.3 9 -5 9 C-4.34 8.01 -3.68 7.02 -3 6 C-2.34 6 -1.68 6 -1 6 C-1.020625 5.195625 -1.04125 4.39125 -1.0625 3.5625 C-1 1 -1 1 0 0 Z " fill="#F8C9FD" transform="translate(156,436)"/>
<path d="M0 0 C3.96 0 7.92 0 12 0 C12.33 0.66 12.66 1.32 13 2 C12.34 2.66 11.68 3.32 11 4 C11 3.34 11 2.68 11 2 C7.37 1.67 3.74 1.34 0 1 C0 0.67 0 0.34 0 0 Z " fill="#F07EF4" transform="translate(96,373)"/>
<path d="M0 0 C0.66 1.32 1.32 2.64 2 4 C3.98 4 5.96 4 8 4 C7.67 4.66 7.34 5.32 7 6 C5.00045254 6.04254356 2.99958364 6.04080783 1 6 C0 5 0 5 -0.0625 2.4375 C-0.041875 1.633125 -0.02125 0.82875 0 0 Z " fill="#F6A5F7" transform="translate(298,449)"/>
<path d="M0 0 C2.17288535 2.17288535 2.64827002 3.01029519 3 6 C2.0625 8.25 2.0625 8.25 1 10 C-0.60725635 6.78548731 -0.05748185 3.56387464 0 0 Z " fill="#FAB1FB" transform="translate(229,440)"/>
<path d="M0 0 C3 1 3 1 4.75 3.375 C6 6 6 6 5 9 C2 4.25 2 4.25 2 2 C1.34 2 0.68 2 0 2 C0 1.34 0 0.68 0 0 Z " fill="#F9A2FA" transform="translate(162,415)"/>
</svg>
